<?xml version="1.0" standalone="no"?>
<!DOCTYPE svg PUBLIC "-//W3C//DTD SVG 20010904//EN"
 "http://www.w3.org/TR/2001/REC-SVG-20010904/DTD/svg10.dtd">
<svg version="1.0" xmlns="http://www.w3.org/2000/svg"
 width="512.000000pt" height="512.000000pt" viewBox="0 0 512.000000 512.000000"
 preserveAspectRatio="xMidYMid meet">

<g transform="translate(0.000000,512.000000) scale(0.100000,-0.100000)"
fill="#2E3440" stroke="none">
<path d="M2143 4656 c-160 -41 -285 -158 -333 -315 -15 -47 -20 -92 -20 -176
l0 -112 -257 -6 c-331 -7 -489 -33 -696 -113 -315 -121 -556 -301 -770 -577
l-68 -87 122 -167 c67 -93 137 -187 155 -211 l32 -42 41 74 c149 272 401 483
691 580 205 68 149 66 1520 66 1344 0 1309 1 1492 -56 304 -95 566 -310 719
-590 l41 -74 32 42 c18 24 88 118 155 211 l122 167 -68 88 c-179 230 -366 385
-611 508 -267 133 -523 184 -929 184 l-183 0 0 114 c0 85 -5 130 -20 177 -51
166 -185 286 -358 320 -113 22 -238 -6 -342 -76 l-50 -34 -57 38 c-32 21 -80
46 -108 55 -67 23 -187 29 -252 12z"/>
<path d="M1239 3251 c-300 -64 -568 -293 -678 -581 -16 -42 -82 -310 -147
-605 l-118 -530 0 -145 c1 -116 5 -161 23 -225 38 -144 124 -299 225 -412 104
-115 287 -225 461 -275 l80 -23 1420 -3 c980 -2 1446 0 1503 8 203 27 389 118
538 265 83 82 140 164 195 278 63 133 82 218 82 387 l1 145 -118 530 c-65 291
-129 559 -142 594 -105 278 -348 500 -639 583 l-80 23 -1260 2 c-1185 2 -1265
1 -1346 -16z"/>
</g>
</svg>
